<?xml version="1.0" encoding="UTF-8"?>
<svg id="Layer_1" data-name="Layer 1" xmlns="http://www.w3.org/2000/svg" viewBox="0 0 1125.37 569.21">
  <defs>
    <style>
      .cls-1 {
        fill: #ffffff;
      }
    </style>
  </defs>
  <path class="cls-1" d="m41.53,460.62C12.7,412.59-1.67,355.15.15,298.88c1.96-88.46,45.3-174.41,114.15-229.88C213.36-11.84,355.1-22.88,465.13,42.43c53.01,31.15,96.65,79.28,121.57,135.2-29.47-53.27-73.28-97.51-126.67-126.18-4.79-2.66-11.83-6.04-16.71-8.43-2-.84-8.13-3.65-10.26-4.56-13.61-5.69-28.17-10.62-42.44-14.3-6.72-1.69-15.06-3.46-21.86-4.74-6.82-1.21-15.25-2.39-22.12-3.17-2.61-.21-8.64-.76-11.13-.96-2.25-.06-8.79-.47-11.15-.55-6.91-.17-15.42-.16-22.32.1-113.66,3.96-216.79,73.47-264.48,176.51C-1.96,275.69.07,376.97,41.53,460.62h0Z"/>
  <g>
    <path class="cls-1" d="m584.2,229.91s-3.84-42.24-42.24-53.76c0,0,42.24-7.68,42.24-53.76,0,0,0,46.08,42.24,53.76,0,0-38.4,11.52-42.24,53.76Z"/>
    <path d="m584.2,229.91c-3.23-23.88-18.38-46.67-42.33-53.44,0,0-1.19-.37-1.19-.37l1.23-.27c17.93-4.03,34.09-17.3,39.26-35.25,1.76-5.88,2.55-12.04,2.54-18.19h1c1.06,25.78,15.06,48.79,41.8,53.43,0,0,1.26.24,1.26.24,0,0-1.23.4-1.23.4-23.27,8.08-40.25,28.72-42.33,53.44h0Zm0,0c1.32-18.26,10.92-35.34,26.06-45.72,4.97-3.47,10.32-6.4,16.09-8.36,0,0,.04.64.04.64-27.15-4.59-41.52-27.94-42.68-54.08,0,0,1,0,1,0-.02,6.23-.85,12.48-2.67,18.45-5.34,18.21-21.76,31.62-40.01,35.63,0,0,.04-.64.04-.64,5.78,1.8,11.35,4.39,16.29,7.91,14.95,10.54,23.56,28.32,25.85,46.16h0Z"/>
  </g>
  <g>
    <path class="cls-1" d="m385.78,405.42h-39.07l-54.69,160.95h29.69l11.16-33.71s4.57-21.17,32.57-21.17,34.4,21.17,34.4,21.17l11.16,33.71h29.69l-54.91-160.95Zm-20.69,106.49s-2.56-28.13-28.13-35.8c0,0,28.13-5.11,28.13-35.8,0,0,0,30.68,28.13,35.8,0,0-25.57,7.67-28.13,35.8Z"/>
    <g>
      <path d="m385.78,405.42c.11,0-39.58.23-38.94.04-13.51,40.16-40.85,120.91-54.43,161.03,0,0-.38-.53-.38-.53,0,0,29.69-.03,29.69-.03,0,0-.41.3-.41.3,0,.03,11.16-33.89,11.11-33.67,2.7-10.03,11.38-17.59,21.28-20.06,14.53-3.69,32.04-.73,41.73,11.52,2.38,2.97,4.28,6.41,5.34,10.05,0,0,1.18,3.58,1.18,3.58,0,0,9.43,28.6,9.43,28.6l-.37-.27,29.69.03s-.34.47-.34.47c-13.68-40.11-41.02-120.92-54.57-161.06h0Zm0,0c13.81,40.08,41.56,120.72,55.25,160.83,0,0,.16.47.16.47,0,0-.5,0-.5,0,0,0-29.69.03-29.69.03,0,0-.28,0-.28,0,0,0-.09-.27-.09-.27,0,0-9.5-28.59-9.5-28.59,0,0-1.19-3.57-1.19-3.57-1.06-3.59-2.87-6.85-5.21-9.76-9.48-11.93-26.63-14.74-40.78-11.12-7.18,1.87-13.72,6.25-17.64,12.61-1.29,2.11-2.39,4.4-2.99,6.76,0,0-11.2,33.69-11.2,33.69l-.1.3s-.31,0-.31,0c0,0-29.69-.03-29.69-.03h-.56s.18-.53.18-.53c13.68-40.09,41.21-120.8,54.95-160.86-.01-.26,39.07.13,39.19.04h0Z"/>
      <path d="m365.09,511.91c-2.11-15.73-12.42-31.1-28.24-35.43,0,0-1.37-.42-1.37-.42l1.42-.32c11.86-2.72,22.58-11.47,26-23.36,1.17-3.9,1.69-7.98,1.69-12.06,0,0,1,0,1,0,.77,17.88,10.59,32.96,29.12,35.7-15.97,4.83-28.26,19.11-29.62,35.89h0Zm0,0c.82-12.13,7.24-23.63,17.28-30.54,3.31-2.33,6.87-4.28,10.73-5.62l.04.74c-18.03-2.89-27.89-18.84-28.56-36.17,0,0,1,0,1,0-.01,4.16-.56,8.34-1.78,12.34-3.58,12.19-14.54,21.19-26.78,23.83,0,0,.04-.74.04-.74,3.86,1.21,7.58,2.96,10.87,5.32,9.95,7.06,15.66,18.93,17.14,30.84h0Z"/>
    </g>
  </g>
  <g>
    <path class="cls-1" d="m659.78,218.42h-39.07l-54.69,160.95h29.69l11.16-33.71s4.57-21.17,32.57-21.17,34.4,21.17,34.4,21.17l11.16,33.71h29.69l-54.91-160.95Zm-20.69,106.49s-2.56-28.13-28.13-35.8c0,0,28.13-5.11,28.13-35.8,0,0,0,30.68,28.13,35.8,0,0-25.57,7.67-28.13,35.8Z"/>
    <g>
      <path d="m659.78,218.42c.11,0-39.58.23-38.94.04-13.51,40.16-40.85,120.91-54.43,161.03,0,0-.38-.53-.38-.53,0,0,29.69-.03,29.69-.03,0,0-.41.3-.41.3,0,.03,11.16-33.89,11.11-33.67,2.7-10.03,11.38-17.59,21.28-20.06,14.53-3.69,32.04-.73,41.73,11.52,2.38,2.97,4.28,6.41,5.34,10.05,0,0,1.18,3.58,1.18,3.58l9.43,28.6s-.37-.27-.37-.27c0,0,29.69.03,29.69.03,0,0-.34.47-.34.47-13.68-40.11-41.02-120.92-54.57-161.06h0Zm0,0c13.81,40.08,41.56,120.72,55.25,160.83,0,0,.16.47.16.47,0,0-.5,0-.5,0,0,0-29.69.03-29.69.03h-.28s-.09-.27-.09-.27c0,0-9.5-28.59-9.5-28.59,0,0-1.19-3.57-1.19-3.57-1.06-3.59-2.87-6.85-5.21-9.76-9.48-11.93-26.63-14.74-40.78-11.12-7.18,1.87-13.72,6.25-17.64,12.61-1.29,2.11-2.39,4.4-2.99,6.76,0,0-11.2,33.69-11.2,33.69,0,0-.1.3-.1.3,0,0-.31,0-.31,0l-29.69-.03h-.56s.18-.53.18-.53c13.68-40.09,41.21-120.8,54.95-160.86-.01-.26,39.07.13,39.19.04h0Z"/>
      <path d="m639.09,324.91c-2.11-15.73-12.42-31.1-28.24-35.43,0,0-1.37-.42-1.37-.42l1.42-.32c11.86-2.72,22.58-11.47,26-23.36,1.17-3.9,1.69-7.98,1.69-12.06,0,0,1,0,1,0,.77,17.88,10.59,32.96,29.12,35.7-15.97,4.83-28.26,19.11-29.62,35.89h0Zm0,0c.82-12.13,7.24-23.63,17.28-30.54,3.31-2.33,6.87-4.28,10.73-5.62,0,0,.04.74.04.74-18.03-2.89-27.89-18.84-28.56-36.17,0,0,1,0,1,0-.01,4.16-.56,8.34-1.78,12.34-3.58,12.19-14.54,21.19-26.78,23.83,0,0,.04-.74.04-.74,3.86,1.21,7.58,2.96,10.87,5.32,9.95,7.06,15.66,18.93,17.14,30.84h0Z"/>
    </g>
  </g>
  <g>
    <path class="cls-1" d="m215.95,329.79c0-19.53-18.6-21.62-38.35-24.17-22.55-3.02-46.95-10.92-46.95-47.65,0-40.44,32.54-49.28,64.39-49.28,15.34,0,29.52,1.86,43,3.25v26.03c-11.62-1.63-27.89-3.95-42.54-3.95-23.24,0-34.87,7.21-34.87,23.24,0,17.43,15.57,19.99,33.24,22.78,24.41,3.95,52.07,7.9,52.07,48.58,0,36.96-26.03,53-63.69,53-18.59,0-35.1-2.09-49.51-4.88v-26.27c17.43,3.25,33.01,5.81,47.18,5.81,23.48,0,36.03-8.83,36.03-26.5Z"/>
    <path d="m215.95,329.79c-.14-26.45-35.13-21.06-52.83-26.94-10.48-2.81-20.65-8.61-26.27-18.18-7.78-13.13-8.26-33.61-2.63-47.63,11.32-27.33,45.62-29.62,71.28-28.38,11,.52,21.94,1.85,32.87,2.97,0,0,0,.3,0,.3,0,0,.03,26.03.03,26.03,0,0,0,.43,0,.43,0,0-.42-.06-.42-.06-14.82-2.04-29.74-4.11-44.71-3.85-10.57.35-23.69,1.75-29.56,11.76-3.35,6.26-3.66,14.89-.05,21.09,6.09,9.35,19.86,10.31,29.96,12.2,14.53,2.45,30.79,4.55,41.61,15.61,10.75,11.12,12.11,27.94,10.45,42.6-4.5,35.38-37.01,45.28-68.27,44.03-14.96-.41-30.41-1.82-44.83-5.05,0,0,.03-26.27.03-26.27,0,0,0-.15,0-.15,0,0,.15.03.15.03,16.1,2.95,32.35,6.03,48.78,5.83,17.28-.07,34.61-6.31,34.41-26.39h0Zm0,0c.26,14.09-8.84,22.68-22.18,25.24-12.12,2.42-24.62,1.1-36.77-.41-8.14-1.09-16.22-2.53-24.29-4.02.31-.67.13,26.2.19,26.14,17.5,2.95,37.28,5.39,55.75,4.48,27.71-1.21,52.74-13.52,56.37-43.54,1.59-14.43.25-31.04-10.35-41.96-10.75-10.89-26.76-12.86-41.19-15.27-10.46-1.92-24.27-2.83-30.66-12.57-3.8-6.52-3.45-15.53.08-22.08,6.07-10.35,19.48-11.83,30.36-12.16,15.05-.23,29.98,1.89,44.83,3.97,0,0-.42.37-.42.37,0,0,.03-26.03.03-26.03,0,0,.3.34.3.34-21.56-2.28-43.49-5.28-65.05-1.57-23.67,3.96-40.38,17.23-41.94,42.3-1.26,16.14,2.76,33.99,17.28,43.15,4.54,3,9.65,5.06,14.88,6.53,17.66,5.92,52.72.64,52.79,27.1h0Z"/>
  </g>
  <g>
    <path class="cls-1" d="m341.23,208.69c52.07,0,76.01,31.84,76.01,86.47s-23.94,86.47-76.01,86.47-76.01-31.84-76.01-86.47,23.94-86.47,76.01-86.47Zm.23,25.33c-30.22,0-46.26,19.06-46.26,61.13s16.04,61.13,45.79,61.13,46.25-19.06,46.25-61.13-16.04-61.13-45.79-61.13Z"/>
    <g>
      <path d="m341.23,208.69c21.71-.25,45.07,6.29,58.79,24.14,13.84,17.48,17.31,40.62,17.46,62.32-.07,21.74-3.46,44.91-17.27,62.48-13.72,17.98-37.19,24.66-58.99,24.49-21.8.18-45.28-6.5-58.99-24.48-13.81-17.57-17.2-40.74-17.27-62.48.15-21.7,3.62-44.85,17.46-62.32,13.73-17.84,37.09-24.39,58.79-24.14h0Zm0,0c-21.68-.16-44.96,6.43-58.6,24.3-13.72,17.47-17.09,40.53-17.16,62.17.15,21.6,3.6,44.65,17.35,62.01,13.65,17.73,36.81,24.19,58.4,23.96,21.59.24,44.76-6.22,58.4-23.95,13.76-17.37,17.2-40.41,17.35-62.01-.07-21.63-3.44-44.71-17.16-62.17-13.64-17.86-36.92-24.46-58.6-24.3h0Z"/>
      <path d="m341.46,234.03c-25.54-.26-40.19,14.73-44.29,39.22-2.38,14.31-2.31,29.11.1,43.4,4.25,24.2,18.2,39.44,43.72,39.14,25.44.31,39.75-14.45,44.1-38.75,2.5-14.29,2.56-29.08.26-43.4-4-24.4-18.27-39.85-43.9-39.61h0Zm0,0c25.76-.3,39.92,15.11,44.21,39.55,2.43,14.37,2.5,29.2.1,43.58-4.17,24.75-18.96,39.87-44.78,39.63-25.87.24-40.35-15.37-44.39-40.02-2.31-14.4-2.25-29.22.26-43.58,4.38-24.51,18.93-39.49,44.6-39.16h0Z"/>
    </g>
  </g>
  <g>
    <path class="cls-1" d="m475.11,211.48v142.02h76.94v25.34h-106.22v-167.35h29.29Z"/>
    <path d="m475.11,211.48c.15,35.41.31,106.62.34,142.02-2.02-.88,76.99-.17,76.6-.43,0,0,.43,0,.43,0,0,0,0,.43,0,.43,0,0,.03,25.34.03,25.34,0,0,0,.46,0,.46h-53.58s-53.11-.06-53.11-.06h-.41s0-.41,0-.41c.04-27.73.12-98.71.15-125.52.03-.05.12-41.88.15-41.94.07-.06,29.3.14,29.39.1h0Zm0,0c.11-.05-29.78.27-29.18,0,0,0,.15,41.84.15,41.84.03,26.5.12,98.09.15,125.52,0,0-.41-.41-.41-.41l53.11-.07h53.11s-.46.47-.46.47c0,0,.03-25.34.03-25.34,0,0,.43.43.43.43l-76.94-.09h-.34s0-.34,0-.34c.03-35.38.19-106.64.34-142.02h0Z"/>
  </g>
  <g>
    <path class="cls-1" d="m784.49,211.48c38.82,0,63.22,17.2,63.22,56.25,0,14.18-6.04,35.1-25.57,47.18l32.08,63.92h-33.01c-9.3-18.59-18.13-37.19-27.66-55.79-3.02,0-7.9.23-13.48.23h-21.15v55.55h-29.29v-167.35h54.85Zm-25.57,86.47h28.59c21.85,0,30.22-16.5,30.22-31.15,0-12.55-8.37-29.98-30.92-29.98h-27.89v61.13Z"/>
    <g>
      <path d="m784.49,211.48c18.72-.05,39.53,4.06,51.98,19.24,11.72,14.39,14.05,37.21,8.59,54.6-3.81,12.2-11.89,23.04-22.8,29.79,0,0,.08-.3.08-.3,0,0,32.17,63.87,32.17,63.87l.25.49s-.55,0-.55,0c0,0-33.01.05-33.01.05,0,0-.24,0-.24,0l-.11-.21s-27.74-55.74-27.74-55.74c0,0,.43.26.43.26-9.88.3-24.63.24-34.63.22,0,0,.47-.47.47-.47,0,0-.08,55.55-.08,55.55,0,0,0,.38,0,.38h-.38s-29.29-.05-29.29-.05c0,0-.34,0-.34,0-.21-.14.41-167.48.25-167.69-.1-.26,54.86.09,54.94,0h0Zm0,0c.09-.04-55.25.21-54.77,0,0,0,.25,167.35.25,167.35l-.34-.34s29.29-.04,29.29-.04l-.38.38-.08-55.55s0-.47,0-.47c0,0,.47,0,.47,0,10.07-.02,24.7,0,34.63-.25,0,0,.3,0,.3,0l.13.27,27.58,55.83-.35-.21,33.01.05s-.3.49-.3.49c-.09-.19-31.99-63.98-32.07-64.16,16.51-9.96,26.08-29.27,25.7-48.35-.09-12.61-3.09-25.72-11.21-35.65-12.38-15.19-33.15-19.34-51.85-19.35h0Z"/>
      <path d="m758.92,297.95c6.4-.05,22.63-.2,28.79-.27.79-.04,2.8-.15,3.57-.19.8-.08,2.71-.42,3.53-.54,21.03-3.8,28.49-30.78,17.18-47.36-4.42-6.56-11.76-10.87-19.57-11.86-4.72-.71-9.53-.37-14.3-.47,0,0-19.2-.03-19.2-.03l.42-.42-.42,61.13h0Zm0,0s-.42-61.13-.42-61.13c0,0,0-.42,0-.42h.43s19.2-.03,19.2-.03c4.8.08,9.67-.28,14.44.43,8.08,1.01,15.69,5.45,20.23,12.27,11.58,17.15,3.87,44.71-17.86,48.47-.84.12-2.77.42-3.59.51-.77.04-2.83.12-3.62.16-6.14-.04-22.46-.19-28.8-.25h0Z"/>
    </g>
  </g>
  <g>
    <path class="cls-1" d="m215.25,543.37c9.53,0,17.9-1.63,28.12-4.18v-59.74h29.29v78.1c-17.9,6.28-39.75,11.16-61.83,11.16-54.85,0-80.19-32.77-80.19-87.16,0-49.97,29.98-85.77,88.33-85.77,15.34,0,33.01,2.09,47.42,5.58,0,.46-.23,26.03-.23,26.5-14.41-4.18-33.7-6.74-46.26-6.74-29.52,0-59.27,16.74-59.27,61.13,0,41.37,22.08,61.13,54.62,61.13Z"/>
    <path d="m215.25,543.37c9.48.08,19.07-1.97,28.09-4.18.1-.11-.27-59.95.03-59.84,0,0,29.29-.03,29.29-.03h.14s0,.14,0,.14c-.15.22.39,78.33-.06,78.32-24.63,8.49-51.1,13.31-77.16,10.32-33.37-4-55.29-24.14-62.37-56.97-7.44-35.06-2.7-76.64,28.2-99.17,23.2-17.09,53.64-18.42,81.28-15.08,8.08.95,16.11,2.31,24.02,4.23,0,0,0,.25,0,.25l-.26,26.5s0,.37,0,.37c0,0-.36-.1-.36-.1-9.45-2.7-19.16-4.46-28.93-5.63-9.75-1.1-19.67-1.84-29.38-.18-19.63,2.8-37.26,16.18-43.27,35.36-6.33,19.85-5.17,46.34,6.21,64.18,9.58,15.06,27.22,21.7,44.54,21.51h0Zm0,0c-17.34.23-35.02-6.38-44.64-21.45-11.46-17.86-12.68-44.41-6.38-64.33,10.94-32.09,42.32-40.07,72.97-35.59,9.79,1.15,19.53,2.88,29.03,5.57l-.36.27.2-26.5s.24.3.24.3c-7.8-1.86-15.74-3.18-23.71-4.1-27.45-3.24-57.68-1.9-80.67,15.12-23.38,16.97-32.06,46.58-30.73,74.44.42,12,2.09,24.03,6.15,35.36,9.3,26.63,30.74,41.65,58.31,44.98,25.96,3.04,52.34-1.72,76.92-10.12-.3,1.35-.02-78.22-.06-77.88,0,0,.14.14.14.14l-29.29-.03c.36-.59-.11,59.76.03,59.66-9.21,2.31-18.62,4.22-28.16,4.16h0Z"/>
  </g>
  <g>
    <path class="cls-1" d="m489.76,398.57v142.02h76.94v25.34h-106.22v-167.35h29.29Z"/>
    <path d="m489.76,398.57c.15,35.41.31,106.62.34,142.02-2.02-.88,76.99-.17,76.6-.43,0,0,.43,0,.43,0,0,0,0,.43,0,.43,0,0,.03,25.34.03,25.34,0,0,0,.46,0,.46h-53.58s-53.11-.06-53.11-.06h-.41s0-.41,0-.41c.04-27.73.12-98.71.15-125.52.03-.05.12-41.88.15-41.94.07-.06,29.3.14,29.39.1h0Zm0,0c.11-.05-29.78.27-29.18,0,0,0,.15,41.84.15,41.84.03,26.5.12,98.09.15,125.52,0,0-.41-.41-.41-.41l53.11-.07h53.11s-.46.47-.46.47c0,0,.03-25.34.03-25.34,0,0,.43.43.43.43l-76.94-.09h-.34s0-.34,0-.34c.03-35.38.19-106.64.34-142.02h0Z"/>
  </g>
  <g>
    <path class="cls-1" d="m616.67,398.57v142.02h76.94v25.34h-106.22v-167.35h29.29Z"/>
    <path d="m616.67,398.57c.15,35.41.31,106.62.34,142.02-2.02-.88,76.99-.17,76.6-.43,0,0,.43,0,.43,0v.43s.03,25.34.03,25.34c0,0,0,.46,0,.46,0,0-.46,0-.46,0h-53.11s-53.11-.06-53.11-.06h-.41s0-.41,0-.41c.04-27.73.12-98.71.15-125.52.03-.05.12-41.88.15-41.94.07-.06,29.3.14,29.39.1h0Zm0,0c.11-.05-29.78.27-29.18,0,0,0,.15,41.84.15,41.84.03,26.5.12,98.09.15,125.52,0,0-.41-.41-.41-.41l53.11-.07h53.11s-.46.47-.46.47c0,0,.03-25.34.03-25.34,0,0,.43.43.43.43,0,0-76.94-.09-76.94-.09h-.34s0-.34,0-.34c.03-35.38.19-106.64.34-142.02h0Z"/>
  </g>
  <g>
    <path class="cls-1" d="m826.56,398.57v25.33h-82.98v45.33h71.59v25.1h-71.59v46.25h82.52v25.34h-111.8v-167.35h112.27Z"/>
    <path d="m826.56,398.57c0,.06.06,25.34.06,25.39-.02-.04-83,.21-83.04.19,0,0,.24-.24.24-.24l.04,45.32-.28-.28s71.59-.06,71.59-.06h.34s0,.34,0,.34c0,0,.02,25.1.02,25.1,0,0,0,.36,0,.36,0,0-.36,0-.36,0,0,0-71.59.06-71.59.06s.41-.41.41-.41c0,0,.04,46.25.04,46.25,0,0-.45-.45-.45-.45.69-.25,82.39.14,83-.04,0,0,0,.49,0,.49,0,0-.02,25.34-.02,25.34,0,0,0,.47,0,.47h-.47c-.43-.08-111.8-.03-112.18-.09-.21-.13.28-167.51.13-167.74-.27-.74,112.27.25,112.52,0h0Zm0,0c.07.06-113.34.51-112.02,0,0,0,.13,167.35.13,167.35-2.36-.91,111.92-.23,111.42-.47,0,0-.47.47-.47.47,0,0-.02-25.34-.02-25.34l.49.49c-.49-.07-82.54.01-82.96-.04,0,0,0-.45,0-.45l.04-46.25s0-.41,0-.41c0,0,.41,0,.41,0,0,0,71.59.06,71.59.06l-.36.36.02-25.1s.34.34.34.34l-71.59-.06h-.28s0-.28,0-.28c.06-.19,0-45.4.04-45.57.14-.22,83.04.35,83.22.19-.1.26,0-25.29,0-25.28h0Z"/>
  </g>
  <g>
    <path class="cls-1" d="m909.77,398.57c38.82,0,63.22,17.2,63.22,56.25,0,14.18-6.04,35.1-25.57,47.18l32.08,63.92h-33.01c-9.3-18.59-18.13-37.19-27.66-55.79-3.02,0-7.9.23-13.48.23h-21.15v55.55h-29.29v-167.35h54.86Zm-25.57,86.47h28.59c21.85,0,30.22-16.5,30.22-31.15,0-12.55-8.37-29.98-30.91-29.98h-27.89v61.13Z"/>
    <g>
      <path d="m909.77,398.57c18.72-.05,39.53,4.06,51.98,19.24,11.72,14.39,14.05,37.21,8.59,54.6-3.81,12.2-11.89,23.04-22.8,29.78,0,0,.08-.3.08-.3l32.17,63.87s.25.49.25.49h-.55s-33.01.05-33.01.05c0,0-.24,0-.24,0l-.11-.21-27.74-55.74.43.26c-9.88.3-24.63.24-34.63.22,0,0,.47-.47.47-.47l-.08,55.55v.38s-.38,0-.38,0l-29.29-.04s-.34,0-.34,0c-.21-.14.41-167.48.25-167.69-.1-.26,54.86.09,54.94,0h0Zm0,0c.09-.04-55.25.21-54.77,0,0,0,.25,167.35.25,167.35,0,0-.34-.34-.34-.34,0,0,29.29-.04,29.29-.04l-.38.38-.08-55.55s0-.47,0-.47h.47c10.07-.02,24.7,0,34.63-.25,0,0,.3,0,.3,0l.13.27,27.58,55.83-.35-.21,33.01.05s-.3.49-.3.49c-.09-.19-31.99-63.98-32.07-64.16,16.51-9.96,26.08-29.27,25.7-48.35-.09-12.61-3.09-25.71-11.21-35.65-12.38-15.19-33.15-19.34-51.85-19.35h0Z"/>
      <path d="m884.21,485.03c6.4-.05,22.63-.2,28.79-.27.79-.04,2.8-.15,3.57-.19.8-.08,2.71-.42,3.53-.54,21.03-3.8,28.48-30.78,17.18-47.36-4.42-6.56-11.76-10.87-19.57-11.86-4.72-.71-9.53-.37-14.3-.47,0,0-19.2-.03-19.2-.03,0,0,.42-.42.42-.42,0,0-.42,61.13-.42,61.13h0Zm0,0l-.42-61.13s0-.42,0-.42c0,0,.43,0,.43,0l19.2-.03c4.8.08,9.67-.28,14.44.43,8.08,1.01,15.69,5.45,20.23,12.27,11.58,17.15,3.87,44.71-17.86,48.47-.84.12-2.77.42-3.59.51-.77.04-2.83.12-3.62.16-6.14-.04-22.46-.19-28.8-.25h0Z"/>
    </g>
  </g>
  <g>
    <path class="cls-1" d="m1038.08,565.92v-57.18l-57.18-110.17h33.24l38.82,79.73h1.39l37.42-79.73h32.77c-19.06,36.72-38.35,73.45-57.18,110.17v57.18h-29.29Z"/>
    <path d="m1038.08,565.92l-.17-57.18c-.17.14-57.36-110.38-57.59-110.53,0,0,.58,0,.58,0,0,0,33.24-.04,33.24-.04,0,0,.24,0,.24,0,0,0,.11.22.11.22-.19.05,40.01,80.93,38.47,79.41,0,0,1.39,0,1.39,0-1.63,1.68,37.51-79.86,37.15-79.66,0,0,.27,0,.27,0,0,0,32.77.03,32.77.03,0,0,.64,0,.64,0l-.29.56c-.05-.05-57.4,110.5-57.27,110-.01.04-.15,57.23-.17,57.27-.08.03-29.29-.11-29.38-.09h0Zm0,0c-.08.01,29.7-.21,29.2,0,0,0-.17-57.18-.17-57.18.03-.11,57.02-110.24,57.09-110.35,0,0,.34.57.34.57l-32.77.03c1.57-1.73-37.42,79.9-36.98,79.51,0,0-.13.28-.13.28h-.31c-.22,0-1.51,0-1.7,0-.13-.21-38.72-79.8-38.87-80.04,0,0,.35.22.35.22l-33.24-.04s.31-.52.31-.52c-.02.04,57.09,110.29,57.04,110.34,0,0-.17,57.18-.17,57.18h0Z"/>
  </g>
</svg>