<svg width="84" height="22" viewBox="0 0 84 22" fill="none" xmlns="http://www.w3.org/2000/svg">
<rect width="84" height="18" rx="3" fill="#FF0000"/>
<path d="M18.1725 4.8C19.6025 4.8 20.2725 5.66 20.2725 6.6C20.2725 7.29 19.9525 7.92 19.1825 8.32C20.1025 8.55 20.5525 9.2 20.5525 10.02C20.5525 11.17 19.6925 12 18.3225 12H15.4925V4.8H18.1725ZM18.2725 11.23C19.1825 11.23 19.6325 10.66 19.6325 9.95C19.6325 9.22 19.0725 8.75 18.1825 8.75H16.3725V11.23H18.2725ZM16.3725 7.99H18.0925C18.8125 7.99 19.4025 7.44 19.4025 6.71C19.4025 6.08 18.9525 5.58 18.0525 5.58H16.3725V7.99ZM21.5586 8.4C21.5586 6.1 22.5186 4.68 24.7386 4.68C26.9586 4.68 27.9186 6.1 27.9186 8.4C27.9186 10.7 26.9586 12.12 24.7386 12.12C22.5186 12.12 21.5586 10.7 21.5586 8.4ZM26.9986 8.4C26.9986 6.33 26.1586 5.45 24.7586 5.45C23.3186 5.45 22.4786 6.33 22.4786 8.4C22.4786 10.47 23.3186 11.35 24.7186 11.35C26.1586 11.35 26.9986 10.47 26.9986 8.4ZM28.9707 8.4C28.9707 6.1 29.9307 4.68 32.1507 4.68C34.3707 4.68 35.3307 6.1 35.3307 8.4C35.3307 10.7 34.3707 12.12 32.1507 12.12C29.9307 12.12 28.9707 10.7 28.9707 8.4ZM34.4107 8.4C34.4107 6.33 33.5707 5.45 32.1707 5.45C30.7307 5.45 29.8907 6.33 29.8907 8.4C29.8907 10.47 30.7307 11.35 32.1307 11.35C33.5707 11.35 34.4107 10.47 34.4107 8.4ZM38.8028 8.77L37.6228 9.2V12H36.7328V4.8H37.6228V8.33L39.0428 7.78C39.9228 7.45 40.5928 6.82 40.5928 5.21C40.5928 5.08 40.5828 4.95 40.5728 4.8H41.4628C41.4728 4.94 41.4728 5.06 41.4728 5.45C41.4728 6.57 41.0528 7.68 39.8128 8.34L39.6328 8.44L40.6628 10.32C41.0828 11.1 41.4528 11.23 42.0828 11.23V12.02C41.9528 12.03 41.8528 12.03 41.7428 12.03C40.7828 12.03 40.2428 11.45 39.8728 10.77L38.8028 8.77ZM50.4964 12L46.6364 6.23V12H45.7464V4.8H46.7264L50.5964 10.64V4.8H51.4764V12H50.4964ZM52.9062 8.4C52.9062 6.1 53.8662 4.68 56.0862 4.68C58.3062 4.68 59.2662 6.1 59.2662 8.4C59.2662 10.7 58.3062 12.12 56.0862 12.12C53.8662 12.12 52.9062 10.7 52.9062 8.4ZM58.3462 8.4C58.3462 6.33 57.5062 5.45 56.1062 5.45C54.6662 5.45 53.8262 6.33 53.8262 8.4C53.8262 10.47 54.6662 11.35 56.0662 11.35C57.5062 11.35 58.3462 10.47 58.3462 8.4ZM66.19 12.04L64.58 6.44H64.52L62.92 12.04H61.76L59.97 4.8H60.89L62.38 10.85H62.42L64.1 4.8H65.06L66.74 10.85H66.79L68.24 4.8H69.14L67.35 12.04H66.19Z" fill="white"/>
</svg>
