<svg width="150" height="32" viewBox="0 0 150 32" fill="none" xmlns="http://www.w3.org/2000/svg">
<rect width="150" height="32" rx="10" fill="white"/>
<path d="M16.1432 21C15.9086 21 15.7273 20.9413 15.5993 20.824C15.4819 20.696 15.4233 20.5147 15.4233 20.28V10.44C15.4233 10.2053 15.4819 10.0293 15.5993 9.912C15.7273 9.784 15.9086 9.72 16.1432 9.72H19.9353C20.7139 9.72 21.3699 9.83733 21.9033 10.072C22.4473 10.296 22.8633 10.6267 23.1513 11.064C23.4393 11.5013 23.5833 12.0347 23.5833 12.664C23.5833 13.368 23.3753 13.9547 22.9593 14.424C22.5539 14.8933 21.9993 15.2027 21.2953 15.352V15.128C22.0953 15.224 22.7193 15.512 23.1673 15.992C23.6259 16.472 23.8553 17.1067 23.8553 17.896C23.8553 18.8987 23.5299 19.6667 22.8793 20.2C22.2286 20.7333 21.3113 21 20.1273 21H16.1432ZM16.7033 19.944H19.9993C20.8526 19.944 21.4926 19.7733 21.9193 19.432C22.3459 19.0907 22.5593 18.5733 22.5593 17.88C22.5593 17.176 22.3459 16.6587 21.9193 16.328C21.4926 15.9867 20.8526 15.816 19.9993 15.816H16.7033V19.944ZM16.7033 14.76H19.7433C20.5753 14.76 21.2046 14.5893 21.6313 14.248C22.0686 13.9067 22.2873 13.416 22.2873 12.776C22.2873 12.1147 22.0686 11.6187 21.6313 11.288C21.2046 10.9467 20.5753 10.776 19.7433 10.776H16.7033V14.76ZM30.9718 21.144C29.9264 21.144 29.0144 20.9093 28.2358 20.44C27.4678 19.96 26.8704 19.288 26.4438 18.424C26.0278 17.56 25.8198 16.536 25.8198 15.352C25.8198 14.456 25.9371 13.656 26.1718 12.952C26.4171 12.2373 26.7638 11.6347 27.2118 11.144C27.6598 10.6427 28.1984 10.2587 28.8278 9.992C29.4678 9.71467 30.1824 9.576 30.9718 9.576C32.0384 9.576 32.9558 9.81067 33.7238 10.28C34.5024 10.7493 35.0998 11.416 35.5158 12.28C35.9424 13.1333 36.1558 14.152 36.1558 15.336C36.1558 16.232 36.0331 17.0373 35.7878 17.752C35.5424 18.4667 35.1958 19.0747 34.7478 19.576C34.2998 20.0773 33.7558 20.4667 33.1158 20.744C32.4864 21.0107 31.7718 21.144 30.9718 21.144ZM30.9718 19.976C31.7824 19.976 32.4651 19.7947 33.0198 19.432C33.5851 19.0693 34.0171 18.5413 34.3158 17.848C34.6144 17.1547 34.7638 16.3227 34.7638 15.352C34.7638 13.8907 34.4331 12.76 33.7718 11.96C33.1211 11.1493 32.1878 10.744 30.9718 10.744C30.1824 10.744 29.5051 10.9253 28.9398 11.288C28.3851 11.6507 27.9584 12.1787 27.6598 12.872C27.3611 13.5547 27.2118 14.3813 27.2118 15.352C27.2118 16.8027 27.5424 17.9387 28.2038 18.76C28.8651 19.5707 29.7878 19.976 30.9718 19.976ZM43.2374 21.144C42.192 21.144 41.28 20.9093 40.5014 20.44C39.7334 19.96 39.136 19.288 38.7094 18.424C38.2934 17.56 38.0854 16.536 38.0854 15.352C38.0854 14.456 38.2027 13.656 38.4374 12.952C38.6827 12.2373 39.0294 11.6347 39.4774 11.144C39.9254 10.6427 40.464 10.2587 41.0934 9.992C41.7334 9.71467 42.448 9.576 43.2374 9.576C44.304 9.576 45.2214 9.81067 45.9894 10.28C46.768 10.7493 47.3654 11.416 47.7814 12.28C48.208 13.1333 48.4214 14.152 48.4214 15.336C48.4214 16.232 48.2987 17.0373 48.0534 17.752C47.808 18.4667 47.4614 19.0747 47.0134 19.576C46.5654 20.0773 46.0214 20.4667 45.3814 20.744C44.752 21.0107 44.0374 21.144 43.2374 21.144ZM43.2374 19.976C44.048 19.976 44.7307 19.7947 45.2854 19.432C45.8507 19.0693 46.2827 18.5413 46.5814 17.848C46.88 17.1547 47.0294 16.3227 47.0294 15.352C47.0294 13.8907 46.6987 12.76 46.0374 11.96C45.3867 11.1493 44.4534 10.744 43.2374 10.744C42.448 10.744 41.7707 10.9253 41.2054 11.288C40.6507 11.6507 40.224 12.1787 39.9254 12.872C39.6267 13.5547 39.4774 14.3813 39.4774 15.352C39.4774 16.8027 39.808 17.9387 40.4694 18.76C41.1307 19.5707 42.0534 19.976 43.2374 19.976ZM51.423 21.112C51.2097 21.112 51.0443 21.0533 50.927 20.936C50.8203 20.808 50.767 20.6373 50.767 20.424V10.28C50.767 10.056 50.8203 9.89067 50.927 9.784C51.0443 9.66667 51.2097 9.608 51.423 9.608C51.6363 9.608 51.7963 9.66667 51.903 9.784C52.0203 9.89067 52.079 10.056 52.079 10.28V14.84H52.111L57.327 9.976C57.455 9.848 57.583 9.75733 57.711 9.704C57.839 9.64 57.9777 9.608 58.127 9.608C58.3297 9.608 58.4737 9.656 58.559 9.752C58.655 9.848 58.6923 9.96533 58.671 10.104C58.6497 10.2427 58.575 10.376 58.447 10.504L52.991 15.56L53.007 14.856L58.703 20.12C58.863 20.2693 58.9483 20.424 58.959 20.584C58.9697 20.7333 58.9217 20.8613 58.815 20.968C58.719 21.064 58.5697 21.112 58.367 21.112C58.207 21.112 58.0683 21.0747 57.951 21C57.8443 20.936 57.7217 20.8347 57.583 20.696L52.111 15.688H52.079V20.424C52.079 20.6373 52.0257 20.808 51.919 20.936C51.8123 21.0533 51.647 21.112 51.423 21.112ZM65.516 21.112C65.3133 21.112 65.1587 21.0587 65.052 20.952C64.9453 20.8347 64.892 20.6693 64.892 20.456V10.28C64.892 10.0667 64.9453 9.90133 65.052 9.784C65.1587 9.66667 65.2973 9.608 65.468 9.608C65.6387 9.608 65.7613 9.64 65.836 9.704C65.9213 9.75733 66.0173 9.85867 66.124 10.008L73.1 19.304H72.716V10.248C72.716 10.0453 72.7693 9.89067 72.876 9.784C72.9827 9.66667 73.1373 9.608 73.34 9.608C73.532 9.608 73.676 9.66667 73.772 9.784C73.8787 9.89067 73.932 10.0453 73.932 10.248V20.472C73.932 20.6747 73.884 20.8347 73.788 20.952C73.7027 21.0587 73.5747 21.112 73.404 21.112C73.244 21.112 73.116 21.08 73.02 21.016C72.924 20.952 72.8227 20.8507 72.716 20.712L65.756 11.416H66.124V20.456C66.124 20.6693 66.0707 20.8347 65.964 20.952C65.8573 21.0587 65.708 21.112 65.516 21.112ZM81.4718 21.144C80.4264 21.144 79.5144 20.9093 78.7358 20.44C77.9678 19.96 77.3704 19.288 76.9438 18.424C76.5278 17.56 76.3198 16.536 76.3198 15.352C76.3198 14.456 76.4371 13.656 76.6718 12.952C76.9171 12.2373 77.2638 11.6347 77.7118 11.144C78.1598 10.6427 78.6984 10.2587 79.3278 9.992C79.9678 9.71467 80.6824 9.576 81.4718 9.576C82.5384 9.576 83.4558 9.81067 84.2238 10.28C85.0024 10.7493 85.5998 11.416 86.0158 12.28C86.4424 13.1333 86.6558 14.152 86.6558 15.336C86.6558 16.232 86.5331 17.0373 86.2878 17.752C86.0424 18.4667 85.6958 19.0747 85.2478 19.576C84.7998 20.0773 84.2558 20.4667 83.6158 20.744C82.9864 21.0107 82.2718 21.144 81.4718 21.144ZM81.4718 19.976C82.2824 19.976 82.9651 19.7947 83.5198 19.432C84.0851 19.0693 84.5171 18.5413 84.8158 17.848C85.1144 17.1547 85.2638 16.3227 85.2638 15.352C85.2638 13.8907 84.9331 12.76 84.2718 11.96C83.6211 11.1493 82.6878 10.744 81.4718 10.744C80.6824 10.744 80.0051 10.9253 79.4398 11.288C78.8851 11.6507 78.4584 12.1787 78.1598 12.872C77.8611 13.5547 77.7118 14.3813 77.7118 15.352C77.7118 16.8027 78.0424 17.9387 78.7038 18.76C79.3651 19.5707 80.2878 19.976 81.4718 19.976ZM92.3674 21.112C92.1754 21.112 92.0207 21.064 91.9034 20.968C91.786 20.8613 91.69 20.7067 91.6154 20.504L88.0794 10.408C88.0047 10.184 88.0207 9.99733 88.1274 9.848C88.2447 9.688 88.426 9.608 88.6714 9.608C88.8527 9.608 88.9967 9.656 89.1034 9.752C89.21 9.83733 89.3007 9.976 89.3754 10.168L92.6874 19.88H92.1274L95.5034 10.216C95.578 10.0133 95.6687 9.864 95.7754 9.768C95.882 9.66133 96.026 9.608 96.2074 9.608C96.378 9.608 96.5114 9.66133 96.6074 9.768C96.714 9.864 96.8047 10.0133 96.8794 10.216L100.207 19.88H99.7114L103.055 10.168C103.109 9.98667 103.189 9.848 103.295 9.752C103.413 9.656 103.562 9.608 103.743 9.608C103.967 9.608 104.133 9.68267 104.239 9.832C104.346 9.98133 104.357 10.1733 104.271 10.408L100.719 20.504C100.645 20.7067 100.549 20.8613 100.431 20.968C100.325 21.064 100.17 21.112 99.9674 21.112C99.7754 21.112 99.6207 21.064 99.5034 20.968C99.3967 20.8613 99.3007 20.7067 99.2154 20.504L95.9994 11.24H96.3514L93.1034 20.504C93.0287 20.7067 92.938 20.8613 92.8314 20.968C92.7247 21.064 92.57 21.112 92.3674 21.112Z" fill="#4845D2"/>
<path d="M121 23.5L136 8.5M136 8.5H121M136 8.5V23.5" stroke="#4845D2" stroke-width="3" stroke-linecap="round" stroke-linejoin="round"/>
</svg>
