<svg width="432" height="83" viewBox="0 0 432 83" fill="none" xmlns="http://www.w3.org/2000/svg">
<path d="M2 41.4453C128.553 41.4453 161.397 41.4453 162 41.4453" stroke="black" stroke-width="3" stroke-linecap="round"/>
<path d="M216 3.44531L216.013 21.4467C216.021 32.4814 224.964 41.4248 235.999 41.4326L254 41.4453L235.999 41.4581C224.964 41.4659 216.021 50.4093 216.013 61.4439L216 79.4453L215.987 61.4439C215.979 50.4093 207.036 41.4659 196.001 41.4581L178 41.4453L196.001 41.4326C207.036 41.4248 215.979 32.4814 215.987 21.4467L216 3.44531Z" fill="#282828"/>
<path d="M270 41.4453C396.553 41.4453 429.397 41.4453 430 41.4453" stroke="black" stroke-width="3" stroke-linecap="round"/>
</svg>
