<svg width="234" height="31" viewBox="0 0 234 31" fill="none" xmlns="http://www.w3.org/2000/svg">
<rect width="234" height="31" rx="10" fill="#4845D2"/>
<path d="M21.4228 21.144C20.9215 21.144 20.4308 21.1013 19.9508 21.016C19.4708 20.9307 19.0228 20.808 18.6068 20.648C18.2015 20.488 17.8335 20.2853 17.5028 20.04C17.3748 19.944 17.2841 19.8373 17.2308 19.72C17.1881 19.592 17.1775 19.4693 17.1988 19.352C17.2308 19.224 17.2841 19.1173 17.3588 19.032C17.4441 18.9467 17.5455 18.8987 17.6628 18.888C17.7801 18.8773 17.9081 18.9147 18.0468 19C18.5268 19.3413 19.0388 19.592 19.5828 19.752C20.1268 19.9013 20.7401 19.976 21.4228 19.976C22.3828 19.976 23.0921 19.8 23.5508 19.448C24.0201 19.0853 24.2548 18.6107 24.2548 18.024C24.2548 17.544 24.0841 17.1707 23.7428 16.904C23.4121 16.6267 22.8521 16.408 22.0628 16.248L20.3988 15.912C19.3961 15.6987 18.6441 15.352 18.1428 14.872C17.6521 14.3813 17.4068 13.7307 17.4068 12.92C17.4068 12.4187 17.5081 11.9653 17.7108 11.56C17.9135 11.144 18.1961 10.792 18.5588 10.504C18.9215 10.2053 19.3535 9.976 19.8548 9.816C20.3561 9.656 20.9108 9.576 21.5188 9.576C22.1908 9.576 22.8148 9.672 23.3908 9.864C23.9775 10.0453 24.5055 10.3227 24.9748 10.696C25.0921 10.792 25.1721 10.904 25.2148 11.032C25.2575 11.1493 25.2628 11.2667 25.2308 11.384C25.1988 11.4907 25.1401 11.5813 25.0548 11.656C24.9801 11.7307 24.8788 11.7733 24.7508 11.784C24.6335 11.7947 24.5001 11.752 24.3508 11.656C23.9241 11.336 23.4815 11.1067 23.0228 10.968C22.5641 10.8187 22.0575 10.744 21.5028 10.744C20.9375 10.744 20.4468 10.8293 20.0308 11C19.6255 11.1707 19.3055 11.4213 19.0708 11.752C18.8468 12.072 18.7348 12.4453 18.7348 12.872C18.7348 13.384 18.8895 13.7893 19.1988 14.088C19.5188 14.3867 20.0361 14.6053 20.7508 14.744L22.4148 15.096C23.4921 15.32 24.2868 15.6613 24.7988 16.12C25.3215 16.568 25.5828 17.1813 25.5828 17.96C25.5828 18.4293 25.4868 18.8613 25.2948 19.256C25.1028 19.6507 24.8255 19.992 24.4628 20.28C24.1001 20.5573 23.6628 20.7707 23.1508 20.92C22.6388 21.0693 22.0628 21.144 21.4228 21.144ZM28.3386 21C28.1039 21 27.9226 20.9413 27.7946 20.824C27.6772 20.696 27.6186 20.5147 27.6186 20.28V10.44C27.6186 10.2053 27.6772 10.0293 27.7946 9.912C27.9226 9.784 28.1039 9.72 28.3386 9.72H34.2906C34.4719 9.72 34.6106 9.768 34.7066 9.864C34.8026 9.96 34.8506 10.0933 34.8506 10.264C34.8506 10.4453 34.8026 10.584 34.7066 10.68C34.6106 10.776 34.4719 10.824 34.2906 10.824H28.8986V14.728H33.9546C34.1359 14.728 34.2746 14.776 34.3706 14.872C34.4666 14.9573 34.5146 15.0907 34.5146 15.272C34.5146 15.4533 34.4666 15.592 34.3706 15.688C34.2746 15.784 34.1359 15.832 33.9546 15.832H28.8986V19.896H34.2906C34.4719 19.896 34.6106 19.944 34.7066 20.04C34.8026 20.136 34.8506 20.2693 34.8506 20.44C34.8506 20.6213 34.8026 20.76 34.7066 20.856C34.6106 20.952 34.4719 21 34.2906 21H28.3386ZM37.5707 21.112C37.368 21.112 37.2134 21.0587 37.1067 20.952C37 20.8347 36.9467 20.6693 36.9467 20.456V10.28C36.9467 10.0667 37 9.90133 37.1067 9.784C37.2134 9.66667 37.352 9.608 37.5227 9.608C37.6934 9.608 37.816 9.64 37.8907 9.704C37.976 9.75733 38.072 9.85867 38.1787 10.008L45.1547 19.304H44.7707V10.248C44.7707 10.0453 44.824 9.89067 44.9307 9.784C45.0374 9.66667 45.192 9.608 45.3947 9.608C45.5867 9.608 45.7307 9.66667 45.8267 9.784C45.9334 9.89067 45.9867 10.0453 45.9867 10.248V20.472C45.9867 20.6747 45.9387 20.8347 45.8427 20.952C45.7574 21.0587 45.6294 21.112 45.4587 21.112C45.2987 21.112 45.1707 21.08 45.0747 21.016C44.9787 20.952 44.8774 20.8507 44.7707 20.712L37.8107 11.416H38.1787V20.456C38.1787 20.6693 38.1254 20.8347 38.0187 20.952C37.912 21.0587 37.7627 21.112 37.5707 21.112ZM49.5104 21C49.2758 21 49.0944 20.9413 48.9664 20.824C48.8491 20.696 48.7904 20.5147 48.7904 20.28V10.44C48.7904 10.2053 48.8491 10.0293 48.9664 9.912C49.0944 9.784 49.2758 9.72 49.5104 9.72H52.5984C54.4224 9.72 55.8304 10.2 56.8224 11.16C57.8144 12.12 58.3104 13.5173 58.3104 15.352C58.3104 16.2693 58.1824 17.08 57.9264 17.784C57.6811 18.4773 57.3131 19.064 56.8224 19.544C56.3318 20.024 55.7344 20.3867 55.0304 20.632C54.3264 20.8773 53.5158 21 52.5984 21H49.5104ZM50.1024 19.88H52.5024C53.2491 19.88 53.8944 19.784 54.4384 19.592C54.9931 19.4 55.4518 19.1173 55.8144 18.744C56.1878 18.3707 56.4651 17.9013 56.6464 17.336C56.8278 16.76 56.9184 16.0987 56.9184 15.352C56.9184 13.848 56.5504 12.7227 55.8144 11.976C55.0784 11.2187 53.9744 10.84 52.5024 10.84H50.1024V19.88ZM69.2384 21.144C68.4918 21.144 67.8358 21.048 67.2704 20.856C66.7158 20.6533 66.2464 20.36 65.8624 19.976C65.4784 19.5813 65.1904 19.096 64.9984 18.52C64.8064 17.944 64.7104 17.2827 64.7104 16.536V10.28C64.7104 10.056 64.7638 9.89067 64.8704 9.784C64.9878 9.66667 65.1531 9.608 65.3664 9.608C65.5798 9.608 65.7398 9.66667 65.8464 9.784C65.9638 9.89067 66.0224 10.056 66.0224 10.28V16.472C66.0224 17.6453 66.2944 18.5253 66.8384 19.112C67.3824 19.688 68.1824 19.976 69.2384 19.976C70.2944 19.976 71.0891 19.688 71.6224 19.112C72.1558 18.5253 72.4224 17.6453 72.4224 16.472V10.28C72.4224 10.056 72.4811 9.89067 72.5984 9.784C72.7158 9.66667 72.8811 9.608 73.0944 9.608C73.2971 9.608 73.4518 9.66667 73.5584 9.784C73.6758 9.89067 73.7344 10.056 73.7344 10.28V16.536C73.7344 17.528 73.5638 18.3707 73.2224 19.064C72.8918 19.7573 72.3904 20.28 71.7184 20.632C71.0464 20.9733 70.2198 21.144 69.2384 21.144ZM80.0791 21.144C79.5777 21.144 79.0871 21.1013 78.6071 21.016C78.1271 20.9307 77.6791 20.808 77.2631 20.648C76.8577 20.488 76.4897 20.2853 76.1591 20.04C76.0311 19.944 75.9404 19.8373 75.8871 19.72C75.8444 19.592 75.8337 19.4693 75.8551 19.352C75.8871 19.224 75.9404 19.1173 76.0151 19.032C76.1004 18.9467 76.2017 18.8987 76.3191 18.888C76.4364 18.8773 76.5644 18.9147 76.7031 19C77.1831 19.3413 77.6951 19.592 78.2391 19.752C78.7831 19.9013 79.3964 19.976 80.0791 19.976C81.0391 19.976 81.7484 19.8 82.2071 19.448C82.6764 19.0853 82.9111 18.6107 82.9111 18.024C82.9111 17.544 82.7404 17.1707 82.3991 16.904C82.0684 16.6267 81.5084 16.408 80.7191 16.248L79.0551 15.912C78.0524 15.6987 77.3004 15.352 76.7991 14.872C76.3084 14.3813 76.0631 13.7307 76.0631 12.92C76.0631 12.4187 76.1644 11.9653 76.3671 11.56C76.5697 11.144 76.8524 10.792 77.2151 10.504C77.5777 10.2053 78.0097 9.976 78.5111 9.816C79.0124 9.656 79.5671 9.576 80.1751 9.576C80.8471 9.576 81.4711 9.672 82.0471 9.864C82.6337 10.0453 83.1617 10.3227 83.6311 10.696C83.7484 10.792 83.8284 10.904 83.8711 11.032C83.9137 11.1493 83.9191 11.2667 83.8871 11.384C83.8551 11.4907 83.7964 11.5813 83.7111 11.656C83.6364 11.7307 83.5351 11.7733 83.4071 11.784C83.2897 11.7947 83.1564 11.752 83.0071 11.656C82.5804 11.336 82.1377 11.1067 81.6791 10.968C81.2204 10.8187 80.7137 10.744 80.1591 10.744C79.5937 10.744 79.1031 10.8293 78.6871 11C78.2817 11.1707 77.9617 11.4213 77.7271 11.752C77.5031 12.072 77.3911 12.4453 77.3911 12.872C77.3911 13.384 77.5457 13.7893 77.8551 14.088C78.1751 14.3867 78.6924 14.6053 79.4071 14.744L81.0711 15.096C82.1484 15.32 82.9431 15.6613 83.4551 16.12C83.9777 16.568 84.2391 17.1813 84.2391 17.96C84.2391 18.4293 84.1431 18.8613 83.9511 19.256C83.7591 19.6507 83.4817 19.992 83.1191 20.28C82.7564 20.5573 82.3191 20.7707 81.8071 20.92C81.2951 21.0693 80.7191 21.144 80.0791 21.144ZM93.7758 21.112C93.5625 21.112 93.3971 21.0533 93.2798 20.936C93.1731 20.808 93.1198 20.632 93.1198 20.408V15.16L93.4078 16.072L89.3918 10.536C89.2958 10.3973 89.2478 10.2587 89.2478 10.12C89.2585 9.97067 89.3171 9.848 89.4238 9.752C89.5305 9.656 89.6691 9.608 89.8398 9.608C89.9891 9.608 90.1225 9.64533 90.2398 9.72C90.3571 9.784 90.4638 9.89067 90.5598 10.04L93.9678 14.744H93.6318L97.0398 10.04C97.1571 9.88 97.2691 9.768 97.3758 9.704C97.4825 9.64 97.6105 9.608 97.7598 9.608C97.9305 9.608 98.0638 9.656 98.1598 9.752C98.2558 9.83733 98.3038 9.95467 98.3038 10.104C98.3145 10.2427 98.2665 10.392 98.1598 10.552L94.1598 16.072L94.4318 15.16V20.408C94.4318 20.8773 94.2131 21.112 93.7758 21.112ZM103.964 21.144C102.919 21.144 102.007 20.9093 101.228 20.44C100.46 19.96 99.8626 19.288 99.4359 18.424C99.0199 17.56 98.8119 16.536 98.8119 15.352C98.8119 14.456 98.9293 13.656 99.1639 12.952C99.4093 12.2373 99.7559 11.6347 100.204 11.144C100.652 10.6427 101.191 10.2587 101.82 9.992C102.46 9.71467 103.175 9.576 103.964 9.576C105.031 9.576 105.948 9.81067 106.716 10.28C107.495 10.7493 108.092 11.416 108.508 12.28C108.935 13.1333 109.148 14.152 109.148 15.336C109.148 16.232 109.025 17.0373 108.78 17.752C108.535 18.4667 108.188 19.0747 107.74 19.576C107.292 20.0773 106.748 20.4667 106.108 20.744C105.479 21.0107 104.764 21.144 103.964 21.144ZM103.964 19.976C104.775 19.976 105.457 19.7947 106.012 19.432C106.577 19.0693 107.009 18.5413 107.308 17.848C107.607 17.1547 107.756 16.3227 107.756 15.352C107.756 13.8907 107.425 12.76 106.764 11.96C106.113 11.1493 105.18 10.744 103.964 10.744C103.175 10.744 102.497 10.9253 101.932 11.288C101.377 11.6507 100.951 12.1787 100.652 12.872C100.353 13.5547 100.204 14.3813 100.204 15.352C100.204 16.8027 100.535 17.9387 101.196 18.76C101.857 19.5707 102.78 19.976 103.964 19.976ZM115.942 21.144C115.195 21.144 114.539 21.048 113.974 20.856C113.419 20.6533 112.95 20.36 112.566 19.976C112.182 19.5813 111.894 19.096 111.702 18.52C111.51 17.944 111.414 17.2827 111.414 16.536V10.28C111.414 10.056 111.467 9.89067 111.574 9.784C111.691 9.66667 111.856 9.608 112.07 9.608C112.283 9.608 112.443 9.66667 112.55 9.784C112.667 9.89067 112.726 10.056 112.726 10.28V16.472C112.726 17.6453 112.998 18.5253 113.542 19.112C114.086 19.688 114.886 19.976 115.942 19.976C116.998 19.976 117.792 19.688 118.326 19.112C118.859 18.5253 119.126 17.6453 119.126 16.472V10.28C119.126 10.056 119.184 9.89067 119.302 9.784C119.419 9.66667 119.584 9.608 119.798 9.608C120 9.608 120.155 9.66667 120.262 9.784C120.379 9.89067 120.438 10.056 120.438 10.28V16.536C120.438 17.528 120.267 18.3707 119.926 19.064C119.595 19.7573 119.094 20.28 118.422 20.632C117.75 20.9733 116.923 21.144 115.942 21.144ZM123.79 21.112C123.577 21.112 123.412 21.0533 123.294 20.936C123.188 20.808 123.134 20.6373 123.134 20.424V10.392C123.134 10.168 123.193 10.0027 123.31 9.896C123.428 9.77867 123.593 9.72 123.806 9.72H127.598C128.804 9.72 129.732 10.0027 130.382 10.568C131.033 11.1333 131.358 11.9387 131.358 12.984C131.358 13.6453 131.209 14.2213 130.91 14.712C130.622 15.192 130.196 15.56 129.63 15.816C129.065 16.0613 128.388 16.184 127.598 16.184L127.758 15.976H128.078C128.494 15.976 128.857 16.0827 129.166 16.296C129.476 16.5093 129.758 16.8507 130.014 17.32L131.55 20.184C131.636 20.3333 131.673 20.4827 131.662 20.632C131.662 20.7707 131.614 20.888 131.518 20.984C131.422 21.0693 131.284 21.112 131.102 21.112C130.921 21.112 130.772 21.0693 130.654 20.984C130.537 20.8987 130.436 20.776 130.35 20.616L128.606 17.384C128.361 16.9253 128.078 16.6213 127.758 16.472C127.438 16.312 127.017 16.232 126.494 16.232H124.446V20.424C124.446 20.6373 124.393 20.808 124.286 20.936C124.18 21.0533 124.014 21.112 123.79 21.112ZM124.446 15.192H127.406C128.281 15.192 128.942 15.0107 129.39 14.648C129.838 14.2747 130.062 13.72 130.062 12.984C130.062 12.2693 129.838 11.7307 129.39 11.368C128.942 10.9947 128.281 10.808 127.406 10.808H124.446V15.192ZM138.618 21.112C138.405 21.112 138.24 21.0533 138.122 20.936C138.016 20.808 137.962 20.6373 137.962 20.424V10.392C137.962 10.168 138.021 10.0027 138.138 9.896C138.256 9.77867 138.421 9.72 138.634 9.72H142.426C143.632 9.72 144.56 10.0187 145.21 10.616C145.861 11.2027 146.186 12.0347 146.186 13.112C146.186 14.1787 145.861 15.0107 145.21 15.608C144.56 16.2053 143.632 16.504 142.426 16.504H139.274V20.424C139.274 20.6373 139.221 20.808 139.114 20.936C139.008 21.0533 138.842 21.112 138.618 21.112ZM139.274 15.4H142.266C143.13 15.4 143.781 15.208 144.218 14.824C144.666 14.4293 144.89 13.8587 144.89 13.112C144.89 12.3547 144.666 11.784 144.218 11.4C143.781 11.0053 143.13 10.808 142.266 10.808H139.274V15.4ZM148.743 21.112C148.53 21.112 148.365 21.0533 148.247 20.936C148.141 20.808 148.087 20.6373 148.087 20.424V10.296C148.087 10.072 148.141 9.90133 148.247 9.784C148.365 9.66667 148.53 9.608 148.743 9.608C148.957 9.608 149.117 9.66667 149.223 9.784C149.341 9.90133 149.399 10.072 149.399 10.296V14.712H156.167V10.296C156.167 10.072 156.221 9.90133 156.327 9.784C156.445 9.66667 156.61 9.608 156.823 9.608C157.037 9.608 157.197 9.66667 157.303 9.784C157.421 9.90133 157.479 10.072 157.479 10.296V20.424C157.479 20.6373 157.421 20.808 157.303 20.936C157.197 21.0533 157.037 21.112 156.823 21.112C156.61 21.112 156.445 21.0533 156.327 20.936C156.221 20.808 156.167 20.6373 156.167 20.424V15.848H149.399V20.424C149.399 20.6373 149.346 20.808 149.239 20.936C149.133 21.0533 148.967 21.112 148.743 21.112ZM164.995 21.144C163.95 21.144 163.038 20.9093 162.259 20.44C161.491 19.96 160.894 19.288 160.467 18.424C160.051 17.56 159.843 16.536 159.843 15.352C159.843 14.456 159.961 13.656 160.195 12.952C160.441 12.2373 160.787 11.6347 161.235 11.144C161.683 10.6427 162.222 10.2587 162.851 9.992C163.491 9.71467 164.206 9.576 164.995 9.576C166.062 9.576 166.979 9.81067 167.747 10.28C168.526 10.7493 169.123 11.416 169.539 12.28C169.966 13.1333 170.179 14.152 170.179 15.336C170.179 16.232 170.057 17.0373 169.811 17.752C169.566 18.4667 169.219 19.0747 168.771 19.576C168.323 20.0773 167.779 20.4667 167.139 20.744C166.51 21.0107 165.795 21.144 164.995 21.144ZM164.995 19.976C165.806 19.976 166.489 19.7947 167.043 19.432C167.609 19.0693 168.041 18.5413 168.339 17.848C168.638 17.1547 168.787 16.3227 168.787 15.352C168.787 13.8907 168.457 12.76 167.795 11.96C167.145 11.1493 166.211 10.744 164.995 10.744C164.206 10.744 163.529 10.9253 162.963 11.288C162.409 11.6507 161.982 12.1787 161.683 12.872C161.385 13.5547 161.235 14.3813 161.235 15.352C161.235 16.8027 161.566 17.9387 162.227 18.76C162.889 19.5707 163.811 19.976 164.995 19.976ZM175.246 21.112C175.043 21.112 174.883 21.0533 174.766 20.936C174.648 20.808 174.59 20.6373 174.59 20.424V10.856H170.99C170.798 10.856 170.648 10.8027 170.542 10.696C170.435 10.5893 170.382 10.4507 170.382 10.28C170.382 10.0987 170.435 9.96 170.542 9.864C170.648 9.768 170.798 9.72 170.99 9.72H179.518C179.71 9.72 179.859 9.768 179.966 9.864C180.072 9.96 180.126 10.0987 180.126 10.28C180.126 10.4613 180.072 10.6053 179.966 10.712C179.859 10.808 179.71 10.856 179.518 10.856H175.918V20.424C175.918 20.6373 175.859 20.808 175.742 20.936C175.635 21.0533 175.47 21.112 175.246 21.112ZM185.48 21.144C184.434 21.144 183.522 20.9093 182.744 20.44C181.976 19.96 181.378 19.288 180.952 18.424C180.536 17.56 180.328 16.536 180.328 15.352C180.328 14.456 180.445 13.656 180.68 12.952C180.925 12.2373 181.272 11.6347 181.72 11.144C182.168 10.6427 182.706 10.2587 183.336 9.992C183.976 9.71467 184.69 9.576 185.48 9.576C186.546 9.576 187.464 9.81067 188.232 10.28C189.01 10.7493 189.608 11.416 190.024 12.28C190.45 13.1333 190.664 14.152 190.664 15.336C190.664 16.232 190.541 17.0373 190.296 17.752C190.05 18.4667 189.704 19.0747 189.256 19.576C188.808 20.0773 188.264 20.4667 187.624 20.744C186.994 21.0107 186.28 21.144 185.48 21.144ZM185.48 19.976C186.29 19.976 186.973 19.7947 187.528 19.432C188.093 19.0693 188.525 18.5413 188.824 17.848C189.122 17.1547 189.272 16.3227 189.272 15.352C189.272 13.8907 188.941 12.76 188.28 11.96C187.629 11.1493 186.696 10.744 185.48 10.744C184.69 10.744 184.013 10.9253 183.448 11.288C182.893 11.6507 182.466 12.1787 182.168 12.872C181.869 13.5547 181.72 14.3813 181.72 15.352C181.72 16.8027 182.05 17.9387 182.712 18.76C183.373 19.5707 184.296 19.976 185.48 19.976Z" fill="white"/>
<path d="M208 20.5L218 10.5M218 10.5H208M218 10.5V20.5" stroke="white" stroke-width="2" stroke-linecap="round" stroke-linejoin="round"/>
</svg>
