<svg width="86" height="23" viewBox="0 0 86 23" fill="none" xmlns="http://www.w3.org/2000/svg">
<path d="M20.5293 13.208C21.9213 13.208 22.6533 12.656 22.6533 11.492C22.6533 10.304 21.6213 10.172 20.5413 10.004C19.3413 9.824 18.0813 9.464 18.0813 7.64C18.0813 5.636 19.6773 5.228 21.2733 5.228C22.0053 5.228 22.7493 5.3 23.3253 5.36V6.332C22.8093 6.248 21.9933 6.152 21.2733 6.152C20.0133 6.152 19.1853 6.5 19.1853 7.616C19.1853 8.732 20.0733 8.9 21.0693 9.068C22.3533 9.272 23.7573 9.488 23.7573 11.468C23.7573 13.208 22.5933 14.144 20.6013 14.144C19.7013 14.144 18.8733 14.048 18.1893 13.928V12.944C19.1253 13.112 19.7973 13.208 20.5293 13.208ZM25.3344 5.36H26.4024V9.152H31.1304V5.36H32.1984V14H31.1304V10.076H26.4024V14H25.3344V5.36ZM33.4344 14L36.4704 5.348H37.9944L41.0424 14H39.9024L39.2184 12.02H35.2464L34.5624 14H33.4344ZM37.1304 6.272L35.4864 11.084H38.9424L37.2984 6.272H37.1304ZM42.2797 5.36H44.9437C46.8637 5.36 47.9317 6.392 47.9317 8.144C47.9317 8.948 47.5957 10.016 46.5757 10.58L48.3277 14H47.1397L45.5437 10.892C45.4597 10.892 45.1837 10.916 44.8237 10.916H43.3357V14H42.2797V5.36ZM43.3357 6.296V9.992H45.0877C46.3237 9.992 46.8397 9.044 46.8397 8.12C46.8397 7.244 46.3237 6.296 45.0277 6.296H43.3357ZM49.7914 5.36H55.3354V6.296H50.8594V9.2H54.7714V10.124H50.8594V13.064H55.3234V14H49.7914V5.36Z" fill="#FF0000"/>
<path d="M72.8999 7.2C74.0597 7.2 74.9999 6.2598 74.9999 5.1C74.9999 3.9402 74.0597 3 72.8999 3C71.7401 3 70.7999 3.9402 70.7999 5.1C70.7999 6.2598 71.7401 7.2 72.8999 7.2Z" fill="#FF0000"/>
<path d="M64.4999 12.1C65.6597 12.1 66.5999 11.1598 66.5999 10C66.5999 8.8402 65.6597 7.9 64.4999 7.9C63.3401 7.9 62.3999 8.8402 62.3999 10C62.3999 11.1598 63.3401 12.1 64.4999 12.1Z" fill="#FF0000"/>
<path d="M72.8999 17C74.0597 17 74.9999 16.0598 74.9999 14.9C74.9999 13.7402 74.0597 12.8 72.8999 12.8C71.7401 12.8 70.7999 13.7402 70.7999 14.9C70.7999 16.0598 71.7401 17 72.8999 17Z" fill="#FF0000"/>
<path d="M66.3129 11.057L71.0939 13.843M71.0869 6.157L66.3129 8.943M74.9999 5.1C74.9999 6.2598 74.0597 7.2 72.8999 7.2C71.7401 7.2 70.7999 6.2598 70.7999 5.1C70.7999 3.9402 71.7401 3 72.8999 3C74.0597 3 74.9999 3.9402 74.9999 5.1ZM66.5999 10C66.5999 11.1598 65.6597 12.1 64.4999 12.1C63.3401 12.1 62.3999 11.1598 62.3999 10C62.3999 8.8402 63.3401 7.9 64.4999 7.9C65.6597 7.9 66.5999 8.8402 66.5999 10ZM74.9999 14.9C74.9999 16.0598 74.0597 17 72.8999 17C71.7401 17 70.7999 16.0598 70.7999 14.9C70.7999 13.7402 71.7401 12.8 72.8999 12.8C74.0597 12.8 74.9999 13.7402 74.9999 14.9Z" stroke="#FF0000" stroke-linecap="round" stroke-linejoin="round"/>
<rect x="0.5" y="0.5" width="85" height="19" rx="3.5" stroke="#FF0000"/>
</svg>
